# xmcd
#
# Track frame offsets:
# 150
# 16138
# 33870
# 49751
# 62795
# 76429
# 88955
# 100501
# 113750
# 127181
# 158504
# 171921
# 186019
# 198771
# 211284
# 220632
# 236072
# 252346
# 272737
# 293602
# 311385
# 324962
# 338531
#
# Disc length: 4721 seconds
#
#
# Revision: 3
# Processed by: cddbd v1.5.2PL0 Copyright (c) Steve Scherf et al.
# Submitted via: FreeRIP 2.96 
#
DISCID=34126f17
DTITLE=Various Artist - Capital Gold Soul Classics cd1
DYEAR=2004
DGENRE=Soul
TTITLE0=Aretha Franklin - I Say A Little Prayer For You
TTITLE1=Marvin Gaye - Whats Going On
TTITLE2=Diana Ross - Ain't No Mountain High Enough
TTITLE3=Stevie Wonder - Uptight (Everything's Alright)
TTITLE4=Smokey Robinson and The Miracles - Tracks Of My Tears
TTITLE5=The Isley Brothers - This Old Heart Of Mine
TTITLE6=Sam and Dave - Hold On I'm Coming
TTITLE7=The Jackson 5 - I Want You Back
TTITLE8=The Four Tops - Reach Out I'll Be There
TTITLE9=The Temptations - Papa Was A Rolling Stone
TTITLE10=Jackie Wilson - (Your Love Keeps Lifting Me) Higher And Higher
TTITLE11=Diana Ross and The Supremes and The Temptations - I'm Gonna Make You Love Me
TTITLE12=Marvin Gaye and Tammi Terrell - You're All I Need To Get By
TTITLE13=James Brown - Its A Man's Man's Man's World
TTITLE14=Bill Withers - Ain't No Sunshine
TTITLE15=Gladys Night and The Pips - Help Me Make It Through The Night
TTITLE16=Commodores - Three Times A Lady
TTITLE17=Barry White - You're The First, The Last, My Everything
TTITLE18=Billy Paul - Me and Mrs Jones
TTITLE19=The Jackson 5 - I'll Be There
TTITLE20=Jr. Walker and The All Stars - How Sweet It Is (To Be Loved By You)
TTITLE21=Sly and The Family Stone - Family Affair
TTITLE22=Edwin Starr - War
EXTD=
EXTT0=
EXTT1=
EXTT2=
EXTT3=
EXTT4=
EXTT5=
EXTT6=
EXTT7=
EXTT8=
EXTT9=
EXTT10=
EXTT11=
EXTT12=
EXTT13=
EXTT14=
EXTT15=
EXTT16=
EXTT17=
EXTT18=
EXTT19=
EXTT20=
EXTT21=
EXTT22=
PLAYORDER=
